<svg xmlns="http://www.w3.org/2000/svg" xmlns:xlink="http://www.w3.org/1999/xlink" viewBox="0 0 351.49 489.61"><defs><style>.cls-1{mask:url(#mask);}.cls-12,.cls-15,.cls-17,.cls-2,.cls-4,.cls-6,.cls-9{mix-blend-mode:multiply;}.cls-2{fill:url(#linear-gradient);}.cls-3{mask:url(#mask-2);}.cls-4{fill:url(#linear-gradient-2);}.cls-5{mask:url(#mask-3);}.cls-6{fill:url(#linear-gradient-3);}.cls-7{isolation:isolate;}.cls-8{fill:#c0843e;}.cls-12,.cls-15,.cls-9{opacity:0.7;}.cls-9{fill:url(#linear-gradient-4);}.cls-10{fill:#fccb7d;}.cls-11{mask:url(#mask-4);}.cls-12{fill:url(#linear-gradient-5);}.cls-13{fill:#e9bd75;}.cls-14{fill:#6b4b1f;}.cls-15{fill:url(#linear-gradient-6);}.cls-16,.cls-17{fill:#fee3bc;}.cls-17{opacity:0.4;}.cls-18{fill:#ffface;}.cls-19{mask:url(#mask-5);}.cls-20,.cls-22{mix-blend-mode:screen;opacity:0.5;}.cls-20{fill:url(#linear-gradient-7);}.cls-21{mask:url(#mask-6);}.cls-22{fill:url(#linear-gradient-8);}.cls-23{filter:url(#luminosity-noclip-3);}.cls-24{filter:url(#luminosity-noclip-2);}.cls-25{filter:url(#luminosity-noclip);}</style><filter id="luminosity-noclip" x="54.39" y="-8792" width="285.5" height="32766" filterUnits="userSpaceOnUse" color-interpolation-filters="sRGB"><feFlood flood-color="#fff" result="bg"/><feBlend in="SourceGraphic" in2="bg"/></filter><mask id="mask" x="54.39" y="-8792" width="285.5" height="32766" maskUnits="userSpaceOnUse"><g class="cls-25"/></mask><linearGradient id="linear-gradient" x1="872.92" y1="-222.07" x2="938.7" y2="-216.76" gradientTransform="matrix(-0.02, 1, 1, 0.02, 434.61, -421.87)" gradientUnits="userSpaceOnUse"><stop offset="0.05"/><stop offset="0.28" stop-color="#4c4c4c"/><stop offset="0.53" stop-color="#989898"/><stop offset="0.74" stop-color="#d0d0d0"/><stop offset="0.89" stop-color="#f2f2f2"/><stop offset="0.97" stop-color="#fff"/></linearGradient><filter id="luminosity-noclip-2" x="39.6" y="-8792" width="279.2" height="32766" filterUnits="userSpaceOnUse" color-interpolation-filters="sRGB"><feFlood flood-color="#fff" result="bg"/><feBlend in="SourceGraphic" in2="bg"/></filter><mask id="mask-2" x="39.6" y="-8792" width="279.2" height="32766" maskUnits="userSpaceOnUse"><g class="cls-24"/></mask><linearGradient id="linear-gradient-2" x1="-1169.31" y1="-47.09" x2="-1169.31" y2="260.46" gradientTransform="matrix(-1, 0, 0, 1, -990.11, 0)" gradientUnits="userSpaceOnUse"><stop offset="0.05"/><stop offset="0.17" stop-color="#303030"/><stop offset="0.43" stop-color="#a9a9a9"/><stop offset="0.61" stop-color="#fff"/><stop offset="1" stop-color="#232323"/></linearGradient><filter id="luminosity-noclip-3" x="66.27" y="-8792" width="278.59" height="32766" filterUnits="userSpaceOnUse" color-interpolation-filters="sRGB"><feFlood flood-color="#fff" result="bg"/><feBlend in="SourceGraphic" in2="bg"/></filter><mask id="mask-3" x="66.27" y="-8792" width="278.59" height="32766" maskUnits="userSpaceOnUse"><g class="cls-23"/></mask><linearGradient id="linear-gradient-3" x1="957.29" y1="-209.58" x2="902.11" y2="-211" gradientTransform="matrix(-0.02, 1, 1, 0.02, 434.61, -421.87)" xlink:href="#linear-gradient-2"/><linearGradient id="linear-gradient-4" x1="522.74" y1="-421.65" x2="534.06" y2="-386.99" gradientTransform="matrix(-0.02, 1, 1, 0.02, 434.61, -421.87)" gradientUnits="userSpaceOnUse"><stop offset="0" stop-color="#fff"/><stop offset="0.47" stop-color="#cbd7d3"/><stop offset="0.57" stop-color="#c8d3cf"/><stop offset="0.67" stop-color="#c0c9c3"/><stop offset="0.76" stop-color="#b1b6b0"/><stop offset="0.86" stop-color="#9d9d94"/><stop offset="0.95" stop-color="#847d71"/><stop offset="0.97" stop-color="#7d7467"/></linearGradient><mask id="mask-4" x="44.16" y="382.52" width="285.5" height="97.03" maskUnits="userSpaceOnUse"><g transform="translate(-10.23 -62.29)"><g class="cls-1"><path class="cls-2" d="M97.85,534.82a53.74,53.74,0,0,0-22.06-25.25A74.71,74.71,0,0,0,58,502.41c-.16-.63-.33-1.27-.49-1.91-1.52-5.89-3.74-12.6-2.93-18.75.59-4.49,4.54-7.33,8.21-9.49a66.55,66.55,0,0,1,14.07-6c10.67-3.31,21.73-5.24,32.76-6.91,28.23-4.28,56.3-9.19,84.79-11.57A912.63,912.63,0,0,1,299,445.3c12.8.41,25.61.92,38.35,2.19.44,4.21.85,8.16,1.2,11.82-4.64,1.19-9.53,1.57-14,3.27a.35.35,0,0,0,.08.69c4.84.73,9.68,1.46,14.53,2.12.73,8.51,1,15.1.6,19.41l-239.21,57A71.18,71.18,0,0,0,97.85,534.82Z"/></g></g></mask><linearGradient id="linear-gradient-5" x1="872.92" y1="-222.07" x2="938.7" y2="-216.76" gradientTransform="matrix(-0.02, 1, 1, 0.02, 434.61, -421.87)" gradientUnits="userSpaceOnUse"><stop offset="0.05" stop-color="#cbd7d3"/><stop offset="0.33" stop-color="#c7ac99"/><stop offset="0.63" stop-color="#c38462"/><stop offset="0.85" stop-color="#c16b40"/><stop offset="0.97" stop-color="#c06133"/></linearGradient><linearGradient id="linear-gradient-6" x1="925.36" y1="-381.96" x2="934.55" y2="-349.42" xlink:href="#linear-gradient-4"/><mask id="mask-5" x="29.37" y="5.39" width="279.2" height="388.28" maskUnits="userSpaceOnUse"><g transform="translate(-10.23 -62.29)"><g class="cls-3"><path class="cls-4" d="M318.32,70.48s-90,10.21-271.63-2.65c0,0-4.93-.8-4.27,1.33s9.28,66,6.82,82.92l11.13,9.42-12.16,6.83-.56,27.58,7,5.8-7.89,5.5s-5.4,162.62-5.1,182.44l6.26,5.78-3.61,3.47-3.67,6.29L39.6,420l38.81,5-29.89,8.59L47.44,452,67.17,456S331.47,431.12,318.32,70.48Z"/></g></g></mask><linearGradient id="linear-gradient-7" x1="-1169.31" y1="-47.09" x2="-1169.31" y2="260.46" gradientTransform="matrix(-1, 0, 0, 1, -990.11, 0)" gradientUnits="userSpaceOnUse"><stop offset="0.05" stop-color="#cbd7d3"/><stop offset="0.56" stop-color="#fbfcfb"/><stop offset="0.61" stop-color="#fff"/><stop offset="1" stop-color="#d4deda"/></linearGradient><mask id="mask-6" x="56.04" y="419.44" width="278.59" height="46.2" maskUnits="userSpaceOnUse"><g transform="translate(-10.23 -62.29)"><g class="cls-5"><path class="cls-6" d="M66.27,483.18s192,4.23,272.77-1.22c0,0,7.1-1.27,5.62,2.24s-148.15,48.66-274,43.29C70.68,527.49,76.57,498.6,66.27,483.18Z"/></g></g></mask><linearGradient id="linear-gradient-8" x1="957.29" y1="-209.58" x2="902.11" y2="-211" gradientTransform="matrix(-0.02, 1, 1, 0.02, 434.61, -421.87)" xlink:href="#linear-gradient-7"/></defs><g class="cls-7"><g id="Layer_1" data-name="Layer 1"><path class="cls-8" d="M40.44,120.89c0,.35-.91,9.77-.91,9.77s-15.71,7.46-19,7.58c0,0-3.43.57-6.38-5s-3.27-13.51-3.27-13.51l7.48-2.2L10.23,116s.95-23.57,5.19-35.16l12-.7L16.67,77.25s4.54-14.41,14-14.69a11.45,11.45,0,0,1,8.58,4.65c3.09,4.55,7.29,53.8,7.29,53.8Z" transform="translate(-10.23 -62.29)"/><path class="cls-9" d="M40.44,120.89c0,.35-.91,9.77-.91,9.77s-15.71,7.46-19,7.58c0,0-3.43.57-6.38-5s-3.27-13.51-3.27-13.51l7.48-2.2L10.23,116s.95-23.57,5.19-35.16l12-.7L16.67,77.25s4.54-14.41,14-14.69a11.45,11.45,0,0,1,8.58,4.65c3.09,4.55,7.29,53.8,7.29,53.8Z" transform="translate(-10.23 -62.29)"/><path class="cls-10" d="M49.25,537.67c-1.45-6.84-3.44-17.17-5.39-31.84a16,16,0,0,1,1.45-.83.36.36,0,0,0-.07-.65,6.1,6.1,0,0,0-1.59-.12c-1.4-10.77-2.78-23.79-3.92-39.42,3.15-1.09,6.38-2,9.47-3.24a.36.36,0,0,0-.07-.65c-3.21-.59-6.48-.42-9.72-.66-.62-9-1.15-18.75-1.57-29.4,8.37-1.07,16.67-2.68,25-3.65.41,0,.31-.69-.08-.7-8.39-.16-16.87-.16-25.18-1.37q-.21-5.94-.37-12.23c-.09-3.73-.15-7.71-.2-11.89a16.69,16.69,0,0,0,2.77-1,.35.35,0,0,0,.08-.55A8,8,0,0,0,37,398c-.39-52.44,2.71-134.91,4.47-196.25.84-.38,1.72-.72,2.51-1.16a.35.35,0,0,0,0-.61,9.7,9.7,0,0,0-2.44-.75c.36-12.68.65-24.41.85-34.72a98.09,98.09,0,0,0,10.24-2.8.36.36,0,0,0-.08-.7c-3.35-.51-6.72-.88-10.08-1.37.11-6.54.16-12.43.16-17.52a15.61,15.61,0,0,1,2.17-.37c.32,0,.53-.46.19-.65a13,13,0,0,0-2.37-1c0-1,0-2,0-3C44.24,93.26,38,68.9,34.54,65.29,32.35,63,30.27,62.78,29,62.92a10.57,10.57,0,0,1,1.67-.36S92,68.75,182.45,72C245.37,74.24,317,65.5,328.28,67.85c0,0,6.46,7.14,10.1,27.86-2,.48-4.2.29-6.17.77a.35.35,0,0,0,0,.68c2.19.8,4.47,1.33,6.72,1.92,1.89,12.6,2.71,29.69.76,52.48-.41,4.84-.83,9.56-1.25,14.23-1.5.44-3,.59-4.57.88a.36.36,0,0,0-.09.65,34.27,34.27,0,0,0,4.37,1.63c-2.88,31.22-5.87,59.19-7.72,89-1.18.06-2.35.05-3.48.07-3.07,0-6.16,0-9.22.28a.36.36,0,0,0-.19.66c3.8,2.48,8.27,3.36,12.55,4.67-.07,1.25-.14,2.5-.2,3.76l-5.61-.11a.35.35,0,0,0-.11.69c1.85.73,3.7,1.44,5.58,2.06-1,20.64-1.46,42.45-.87,67,.26,10.61.71,20.89,1.29,30.78a41.2,41.2,0,0,0-5.92,1.33.35.35,0,0,0,0,.68,63.7,63.7,0,0,0,6.17,2.05c2.25,35.9,6.1,66.33,8.13,87.4-4.64,1.19-9.53,1.57-14,3.27a.35.35,0,0,0,.08.69c4.84.73,9.68,1.46,14.53,2.12.73,8.51,1,15.1.6,19.41L59.23,551.67S52.81,554.37,49.25,537.67Z" transform="translate(-10.23 -62.29)"/><g class="cls-11"><path class="cls-12" d="M97.85,534.82a53.74,53.74,0,0,0-22.06-25.25A74.71,74.71,0,0,0,58,502.41c-.16-.63-.33-1.27-.49-1.91-1.52-5.89-3.74-12.6-2.93-18.75.59-4.49,4.54-7.33,8.21-9.49a66.55,66.55,0,0,1,14.07-6c10.67-3.31,21.73-5.24,32.76-6.91,28.23-4.28,56.3-9.19,84.79-11.57A912.63,912.63,0,0,1,299,445.3c12.8.41,25.61.92,38.35,2.19.44,4.21.85,8.16,1.2,11.82-4.64,1.19-9.53,1.57-14,3.27a.35.35,0,0,0,.08.69c4.84.73,9.68,1.46,14.53,2.12.73,8.51,1,15.1.6,19.41l-239.21,57A71.18,71.18,0,0,0,97.85,534.82Z" transform="translate(-10.23 -62.29)"/></g><path class="cls-13" d="M18.59,137.69c2.45.3,8.46-.3,11-12.35,2.79-.3,8.9-1.13,8.51-1.24-2.64-.74-5.38-1-8-1.7.18-1.32.33-2.75.43-4.31,0,0,.87-16.78-5.6-20.27L42,99.65a323.12,323.12,0,0,1,.65,37.44l-22.14,1.15A4.13,4.13,0,0,1,18.59,137.69Z" transform="translate(-10.23 -62.29)"/><path class="cls-14" d="M20,100.55c1.76-4.3,4.92-2.73,4.92-2.73,3.22,1.74,4.62,6.78,5.22,11.4l-11.82,0A24.45,24.45,0,0,1,20,100.55Z" transform="translate(-10.23 -62.29)"/><path class="cls-8" d="M51.25,520.5c-2.55-14,1.08-30.29,1.08-30.29l4.74-.84-4.34-1.5a24.63,24.63,0,0,1,1.67-6.81c1.36-3,3.1-1.77,3.1-1.77l4.92,2.17c5.19,5.24,7.26,14.4,8,22.9-4-.41-13.82-1.44-13.82-1.44,2.17,21.15-2.22,22.36-2.22,22.36C52.58,524.89,51.25,520.5,51.25,520.5Z" transform="translate(-10.23 -62.29)"/><path class="cls-15" d="M51.25,520.5c-2.55-14,1.08-30.29,1.08-30.29l4.74-.84-4.34-1.5a24.63,24.63,0,0,1,1.67-6.81c1.36-3,3.1-1.77,3.1-1.77l4.92,2.17c5.19,5.24,7.26,14.4,8,22.9-4-.41-13.82-1.44-13.82-1.44,2.17,21.15-2.22,22.36-2.22,22.36C52.58,524.89,51.25,520.5,51.25,520.5Z" transform="translate(-10.23 -62.29)"/><path class="cls-14" d="M56.56,502.92s9.77,1,13.82,1.44A107.93,107.93,0,0,1,70,524.18l-15.7,1.1S58.73,524.07,56.56,502.92Z" transform="translate(-10.23 -62.29)"/><path class="cls-16" d="M57.46,551.9s5.66.12,7.31-16.12l11.5-4.46-9.37-.45s4.08-44.23-9.4-51.58c0,0,118.43,4,179.29,3.44s106.23-4.94,111.86-3.58c0,0,6.28,4.19,9.36,9.21l-8,2,9.88.9s5.11,18.5-1.78,35.88l-11.34,1.18,8.81,1.59a27.87,27.87,0,0,1-14,10.69s-87,3.09-123.35,3.35C166.57,544.28,62.89,551.69,57.46,551.9Z" transform="translate(-10.23 -62.29)"/><path class="cls-17" d="M361,516.14c-10.06,2.34-20.22,4.35-30.43,6.2-33.76,6.13-67.8,11.16-102.06,13.46-34.75,2.33-69.39,1.05-104-2.2-16.1-1.51-32-3.8-48-6.19-3-.45-6.12-.92-9.22-1.47-.16,3-.33,4.93-.33,4.93l9.37.45-11.5,4.46c-1.55,15.18-6.6,16.07-7.24,16.12,6.06-.26,109.21-7.62,160.69-8,36.32-.26,123.35-3.35,123.35-3.35a27.87,27.87,0,0,0,14-10.69l-8.81-1.59,11.34-1.18A50.19,50.19,0,0,0,361,516.14Z" transform="translate(-10.23 -62.29)"/><path class="cls-18" d="M18.59,137.69a7.1,7.1,0,0,0,1.13,0l.56-.07.55-.11a7.83,7.83,0,0,0,1.07-.34l.51-.22.48-.27a7.46,7.46,0,0,0,.92-.63c.29-.22.55-.49.83-.73l.73-.84c.22-.29.43-.6.64-.9s.37-.64.56-1a7.06,7.06,0,0,0,.5-1c.15-.34.33-.67.45-1l.38-1.05c.26-.7.42-1.43.64-2.14s.32-1.46.48-2.19l.09-.37.37,0c1.38-.17,2.77-.37,4.16-.58l1.12-.17-.73-.13L32,123.55l-2.1-.48-.56-.13.06-.63.31-3.22.08-.81c0-.27,0-.51,0-.79,0-.53,0-1.07,0-1.61a55.54,55.54,0,0,0-.38-6.45c-.12-1.07-.28-2.13-.5-3.17a23.94,23.94,0,0,0-.84-3.07,14.36,14.36,0,0,0-.59-1.46,11.27,11.27,0,0,0-.76-1.36,4.61,4.61,0,0,0-.44-.62,5.59,5.59,0,0,0-.51-.57,5.74,5.74,0,0,0-1.17-.91l-1.09-.68a7,7,0,0,1,1.8-.23l1.81.23.68.14a.66.66,0,0,0,.28,0l1.09.14.45,0,1.35.28a.53.53,0,0,0,.36,0l2.12.29c2.85.4,5.69.78,8.53,1.22-2.87-.16-5.73-.4-8.6-.61-1.43-.1-2.86-.23-4.29-.34l-2.49-.22a5.58,5.58,0,0,1,.53.56,8.45,8.45,0,0,1,.53.69,11.1,11.1,0,0,1,.88,1.48,16.21,16.21,0,0,1,.68,1.55,25.15,25.15,0,0,1,1,3.22c.25,1.09.44,2.18.59,3.28a56.42,56.42,0,0,1,.43,6.61c0,.56,0,1.11,0,1.66a6,6,0,0,1,0,.85l-.08.82-.28,2.67,1.43.33,2.06.39,1,.21c.35.07.71.13,1.05.22l1.53.38.25.06h0a.74.74,0,0,1,.44.37.62.62,0,0,1,.07.3,1.23,1.23,0,0,1-.06.22.74.74,0,0,1-.31.34l-.05,0-.08,0-.19,0c-.39.08-.72.13-1.08.19l-1,.15-2.09.27c-1.28.15-2.56.29-3.84.41-.16.62-.31,1.24-.48,1.86l-.36,1.09c-.13.37-.24.74-.4,1.09l-.45,1.07c-.14.36-.34.69-.51,1a9.05,9.05,0,0,1-.57,1c-.22.32-.41.66-.65,1s-.48.61-.74.9-.54.56-.82.83-.6.5-.92.71a9.12,9.12,0,0,1-1,.6l-.52.25-.55.19a6.1,6.1,0,0,1-1.12.27l-.57.07-.57,0A8.48,8.48,0,0,1,18.59,137.69Z" transform="translate(-10.23 -62.29)"/><path class="cls-18" d="M47.69,529.75l-.78-4c-.14-.66-.26-1.32-.36-2l-.31-2-2.5-16v-.08l.06,0,.9-.52.45-.26.11-.06.08-.06s0-.08,0-.14a.25.25,0,0,0,0-.15.18.18,0,0,0-.15-.06l-.51-.08a6.69,6.69,0,0,0-1,0h-.12l0-.11-1.17-9.84-.58-4.92L41.47,487c-.11-.82-.17-1.64-.25-2.46l-1.78-19.74,0-.22.21-.07,4.89-1.62,2.41-.88,1.21-.44.9-.32s0,0,0,0v0h0l-.64-.08L47.07,461c-.43-.07-.85-.07-1.27-.1l-1.27-.07c-.85,0-1.71-.05-2.56-.08l-2.59-.12h-.32v-.32l-1.63-29.42,0-.37.39-.06,12.73-1.92,9.59-1.39,1.12-.16-1.1,0-3.23-.05-6.45-.17c-2.15-.1-4.31-.24-6.46-.36l-6.44-.7-.44-.05,0-.46-.38-12.06L36.48,401v-.44l.41-.13.81-.26a8.11,8.11,0,0,0,.79-.28l.68-.29-.15-.11a2.49,2.49,0,0,0-.34-.2l-.32-.19A2.32,2.32,0,0,0,38,399l-.36-.17-.76-.26-.43-.15V398l.14-24.54.07-12.27c0-4.1,0-8.19.16-12.28l.8-36.8c.1-4.09.16-8.18.29-12.27l1.42-49.06,1.52-49v-.43l.38-.17.7-.3.69-.31.41-.2-.22-.08a3.89,3.89,0,0,0-.68-.19l-.67-.16-.56-.13v-.55l.88-34.71V164l.49-.12,2.63-.64c.88-.21,1.77-.42,2.64-.65l2.58-.78,1.1-.33-.72-.1-2.7-.36-5.39-.74-.55-.08v-.56l.16-17.51v-.51l.47-.09c.47-.09.93-.21,1.41-.27l-.21-.1c-.22-.11-.42-.16-.63-.25l-.63-.23-.42-.15v-.43l0-2.57c0-.9,0-1.72.07-2.59.06-1.71.09-3.41.13-5.12.05-3.41.08-6.83,0-10.24-.07-6.83-.34-13.66-.88-20.47a176.68,176.68,0,0,0-2.72-20.26q-.51-2.5-1.15-5A49.54,49.54,0,0,0,36,69a17.15,17.15,0,0,0-1-2.26c0-.08-.09-.15-.14-.23-.89-2.11-3.2-3.33-5.46-3.71a9,9,0,0,1,5.45-.18.49.49,0,0,0,.48-.12l4.93.47c3.15.29,6.31.53,9.47.8l18.94,1.55c3.15.28,6.31.5,9.47.7l9.48.63,19,1.29,9.49.65,4.74.32,4.74.24,19,.94,38,1.89-38-1.6-19-.8-4.75-.2L116,69.1l-9.49-.57-19-1.15L78,66.79c-3.16-.19-6.33-.39-9.49-.66L49.6,64.65c-3.16-.25-6.32-.47-9.47-.76l-7.48-.67a13.35,13.35,0,0,1,1.44,1l.46.44.24.22a.94.94,0,0,1,.13.14l.12.13a3.62,3.62,0,0,1,.42.57,6,6,0,0,1,.36.57,19.08,19.08,0,0,1,1.11,2.39,49.69,49.69,0,0,1,1.58,4.94c.46,1.67.84,3.34,1.19,5A175.67,175.67,0,0,1,42.53,99q.86,10.26.95,20.54c.05,3.43,0,6.86,0,10.28,0,1.72-.06,3.43-.12,5.14,0,.84-.07,1.74-.07,2.54l0,2.14.29.11c.24.09.49.17.7.27l.64.32.32.15.08,0a2.12,2.12,0,0,1,.23.16,1,1,0,0,1,.27.45,1,1,0,0,1-.7,1.18l-.09,0-.14,0h0l-.67.09a6.78,6.78,0,0,0-.88.16l-.13,16.46,4.85.65,2.7.37,1.35.18.33,0,.17,0h.13l.1,0a1,1,0,0,1,.65,1.48,1.15,1.15,0,0,1-.21.23l-.12.1h0l-.07.05h0l-.1,0h-.07l-.33.1-.65.2-1.32.4-2.63.8c-.88.23-1.77.44-2.65.66l-2.16.53-.81,33.68.25.06a5.37,5.37,0,0,1,.77.22l.71.26.18.07.09,0,.06,0h0l0,0,.07,0,.12.1a1,1,0,0,1,.26,1,1.74,1.74,0,0,1-.11.25,1.47,1.47,0,0,1-.23.25l0,0h0l-.1.06h0l-.09,0-.35.17-.71.35c-.24.12-.46.21-.69.31l-.31.14-2.94,97.68C39.1,304,39,308,38.93,312.12l-.86,36.8c-.12,4.08-.14,8.17-.17,12.26l-.09,12.27-.17,24.11.42.14.42.19a4,4,0,0,1,.42.2,9.1,9.1,0,0,1,.81.48l.52.37,0,0,0,0,0,0,.11.13a.75.75,0,0,1,.14.3,1,1,0,0,1-.36,1h0l-.07,0h0l-.06,0-.1,0-.21.09-.84.35c-.28.13-.55.19-.83.29l-.41.13.18,11.62.32,11.59,5.93.68c2.14.12,4.27.27,6.41.38l6.43.2,5.84.11a1.31,1.31,0,0,1,.41.09.89.89,0,0,1,.46.73.82.82,0,0,1-.11.46.87.87,0,0,1-.25.26.43.43,0,0,1-.16.07l0,0h0l-.11,0h-.13l-.2,0-.79.11-1.6.23-9.56,1.34-12.38,1.81,1.47,28.7L42,460l2.58.1,1.3.08c.43,0,.87,0,1.29.11l1.28.18.63.08h.09l.16.05a.63.63,0,0,1,.26.22.69.69,0,0,1,.1.56.83.83,0,0,1,0,.15l-.14.18a.63.63,0,0,1-.21.13l-.92.33-1.22.43-2.43.86L40,465l1.62,19.51c.07.82.12,1.64.22,2.46l.27,2.46.55,4.92,1.08,9.72a5.56,5.56,0,0,1,.92.05l.51.07a.5.5,0,0,1,.3.16.47.47,0,0,1,.12.32.5.5,0,0,1-.13.34l-.12.09-.12.06-.44.25-.82.47,2.37,15.89.3,2c.09.67.21,1.33.34,2l.75,4,1.5,7.93Z" transform="translate(-10.23 -62.29)"/><path class="cls-18" d="M44.81,141.1l-.07,0Z" transform="translate(-10.23 -62.29)"/><path class="cls-18" d="M44.79,141.11h0Z" transform="translate(-10.23 -62.29)"/><path class="cls-18" d="M44.77,141.63l-.06,0Z" transform="translate(-10.23 -62.29)"/><path class="cls-18" d="M52.5,161.06l0,0h0A.11.11,0,0,1,52.5,161.06Z" transform="translate(-10.23 -62.29)"/><path class="cls-18" d="M52.48,161.63h0Z" transform="translate(-10.23 -62.29)"/><path class="cls-18" d="M43.67,200h0S43.68,200,43.67,200Z" transform="translate(-10.23 -62.29)"/><path class="cls-18" d="M62.8,426.74h0C62.91,426.7,62.81,426.74,62.8,426.74Z" transform="translate(-10.23 -62.29)"/><path class="cls-18" d="M62.76,427c.05,0,0,0,0,0Z" transform="translate(-10.23 -62.29)"/><path class="cls-18" d="M49.05,461.24h0Z" transform="translate(-10.23 -62.29)"/><path class="cls-18" d="M49.07,461.26l0,0Z" transform="translate(-10.23 -62.29)"/><path class="cls-18" d="M58.56,551.55a3.06,3.06,0,0,0,.49-.3,3.17,3.17,0,0,0,.46-.36,7,7,0,0,0,.81-.83c.26-.29.45-.63.69-.94s.38-.67.57-1,.33-.71.5-1A11,11,0,0,0,62.5,546c.13-.37.28-.73.39-1.1l.32-1.12c.11-.37.2-.74.28-1.13.16-.75.36-1.5.46-2.27s.28-1.53.36-2.3l.26-2.32v-.12l.12,0,10.08-4-7.9-.32-.39,0,0-.4c.34-4.49.49-9,.5-13.51s-.17-9-.59-13.5c-.12-1.11-.23-2.23-.38-3.35s-.31-2.22-.5-3.33-.39-2.2-.65-3.29-.53-2.17-.83-3.25L63.56,489c-.17-.53-.39-1-.58-1.55a22.08,22.08,0,0,0-1.43-3,12.4,12.4,0,0,0-.88-1.38,11.06,11.06,0,0,0-1-1.26l-.27-.31-.3-.26-.59-.53c-.4-.35-.87-.59-1.3-.9l-1.1-.77a3.94,3.94,0,0,1,1.24-.41h.18l22.4.65,22.41.58,22.4.66,22.41.5q11.21.24,22.41.55l11.2.29c3.73.11,7.47.11,11.2.16l22.42.31,22.41.36-22.42.11-22.42,0c-3.73,0-7.47,0-11.2,0l-11.21-.17q-11.22-.15-22.42-.38l-22.41-.41-22.41-.58-22.41-.65L59.54,480l.42.38.33.3.29.33a11.19,11.19,0,0,1,1.1,1.39,12.74,12.74,0,0,1,.94,1.48A24.17,24.17,0,0,1,64.11,487c.2.54.43,1.08.6,1.62l.52,1.64c.3,1.11.6,2.21.83,3.33s.43,2.24.63,3.37.33,2.25.46,3.38.24,2.26.34,3.39c.38,4.53.5,9.06.44,13.59s-.24,8.8-.62,13.19l9,.5,1.49.08-1.39.53L65,535.92l-.29,2.2c-.09.77-.27,1.54-.4,2.3s-.33,1.53-.51,2.29a11.06,11.06,0,0,1-.3,1.13L63.1,545c-.11.38-.27.73-.41,1.1a11.2,11.2,0,0,1-.45,1.08c-.18.35-.33.71-.53,1.05s-.39.67-.61,1-.45.64-.72.92a5.85,5.85,0,0,1-.83.82,3,3,0,0,1-.47.35,2.62,2.62,0,0,1-.51.3,2.85,2.85,0,0,1-1.11.32A2.84,2.84,0,0,0,58.56,551.55Z" transform="translate(-10.23 -62.29)"/><g class="cls-19"><path class="cls-20" d="M318.32,70.48s-90,10.21-271.63-2.65c0,0-4.93-.8-4.27,1.33s9.28,66,6.82,82.92l11.13,9.42-12.16,6.83-.56,27.58,7,5.8-7.89,5.5s-5.4,162.62-5.1,182.44l6.26,5.78-3.61,3.47-3.67,6.29L39.6,420l38.81,5-29.89,8.59L47.44,452,67.17,456S331.47,431.12,318.32,70.48Z" transform="translate(-10.23 -62.29)"/></g><g class="cls-21"><path class="cls-22" d="M66.27,483.18s192,4.23,272.77-1.22c0,0,7.1-1.27,5.62,2.24s-148.15,48.66-274,43.29C70.68,527.49,76.57,498.6,66.27,483.18Z" transform="translate(-10.23 -62.29)"/></g></g></g></svg>